HIERARCHY
ROOT joint_Root
{
	OFFSET 0.0 0.0 0.0
	CHANNELS 6 Xposition Yposition Zposition Zrotation Xrotation Yrotation 
	JOINT Hips
	{
		OFFSET 4.5925 91.4895 -427.239
		CHANNELS 6 Xposition Yposition Zposition Zrotation Xrotation Yrotation 
		JOINT Spine
		{
			OFFSET 15.7357 0.0 0.0
			CHANNELS 6 Xposition Yposition Zposition Zrotation Xrotation Yrotation 
			JOINT Chest
			{
				OFFSET 8.98455 -0.406207 0.0
				CHANNELS 6 Xposition Yposition Zposition Zrotation Xrotation Yrotation 
				JOINT Neck
				{
					OFFSET 16.3773 0.0 0.0
					CHANNELS 6 Xposition Yposition Zposition Zrotation Xrotation Yrotation 
					JOINT Head
					{
						OFFSET 6.45672 0.0 0.0
						CHANNELS 6 Xposition Yposition Zposition Zrotation Xrotation Yrotation 
						End Site
						{
							OFFSET 0.0 0.0 0.0
						}
					}
				}
				JOINT Shoulder_L
				{
					OFFSET 12.9942 -0.242716 4.98039
					CHANNELS 6 Xposition Yposition Zposition Zrotation Xrotation Yrotation 
					JOINT UpperArm_L
					{
						OFFSET 5.34809 0.0 0.0
						CHANNELS 6 Xposition Yposition Zposition Zrotation Xrotation Yrotation 
						JOINT LowerArm_L
						{
							OFFSET 24.3286 1.87007e-05 0.0
							CHANNELS 6 Xposition Yposition Zposition Zrotation Xrotation Yrotation 
							JOINT Hand_L
							{
								OFFSET 22.2916 0.0 0.0
								CHANNELS 6 Xposition Yposition Zposition Zrotation Xrotation Yrotation 
								End Site
								{
									OFFSET 0.0 0.0 0.0
								}
							}
						}
					}
				}
				JOINT Shoulder_R
				{
					OFFSET 12.9945 -0.242716 -4.98039
					CHANNELS 6 Xposition Yposition Zposition Zrotation Xrotation Yrotation 
					JOINT UpperArm_R
					{
						OFFSET -5.34813 0.0 0.0
						CHANNELS 6 Xposition Yposition Zposition Zrotation Xrotation Yrotation 
						JOINT LowerArm_R
						{
							OFFSET -24.3289 0.000322201 0.0
							CHANNELS 6 Xposition Yposition Zposition Zrotation Xrotation Yrotation 
							JOINT Hand_R
							{
								OFFSET -22.2915 -0.000108084 0.0
								CHANNELS 6 Xposition Yposition Zposition Zrotation Xrotation Yrotation 
								End Site
								{
									OFFSET 0.0 0.0 0.0
								}
							}
						}
					}
				}
			}
		}
		JOINT UpperLeg_L
		{
			OFFSET -2.19248 -6.46944 0.0
			CHANNELS 6 Xposition Yposition Zposition Zrotation Xrotation Yrotation 
			JOINT LowerLeg_L
			{
				OFFSET 39.0811 0.0 -1.23785e-05
				CHANNELS 6 Xposition Yposition Zposition Zrotation Xrotation Yrotation 
				JOINT Foot_L
				{
					OFFSET 40.9854 0.0 -1.26872e-05
					CHANNELS 6 Xposition Yposition Zposition Zrotation Xrotation Yrotation 
					JOINT Toes_L
					{
						OFFSET 11.7543 0.0 0.0
						CHANNELS 6 Xposition Yposition Zposition Zrotation Xrotation Yrotation 
						End Site
						{
							OFFSET 0.0 0.0 0.0
						}
					}
				}
			}
		}
		JOINT UpperLeg_R
		{
			OFFSET -2.19251 6.46944 0.0
			CHANNELS 6 Xposition Yposition Zposition Zrotation Xrotation Yrotation 
			JOINT LowerLeg_R
			{
				OFFSET -39.0811 -0.00228153 -0.0401928
				CHANNELS 6 Xposition Yposition Zposition Zrotation Xrotation Yrotation 
				JOINT Foot_R
				{
					OFFSET -40.9854 0.0 0.0
					CHANNELS 6 Xposition Yposition Zposition Zrotation Xrotation Yrotation 
					JOINT Toes_R
					{
						OFFSET -11.7543 0.0 0.0
						CHANNELS 6 Xposition Yposition Zposition Zrotation Xrotation Yrotation 
						End Site
						{
							OFFSET 0.0 0.0 0.0
						}
					}
				}
			}
		}
	}
}
MOTION
Frames:	4
Frame Time:	0.0333333
0.000000 0.000000 0.000000 0.000000 0.000000 -0.000000 -2.321220 90.353300 1.959430 89.795200 -4.812300 10.658100 15.735700 0.000005 -0.000001 83.479200 82.368400 -82.589400 8.984550 -0.406207 -0.000000 7.415130 -1.729550 1.889800 16.377300 -0.000001 -0.000001 4.660710 -4.034100 1.637410 6.456720 -0.000001 -0.000000 -8.140130 -3.478040 0.674958 12.994200 -0.242716 4.980390 -91.770000 6.568710 -74.883200 5.348090 -0.000007 -0.000001 -62.170800 38.259700 -17.505400 24.328600 0.000019 0.000005 9.893880 23.953400 -23.248700 22.291600 -0.000001 0.000005 6.989420 5.289010 0.378297 12.994500 -0.242716 -4.980390 88.221000 11.972900 -81.485100 -5.348130 -0.000001 -0.000004 -60.311100 35.653300 -9.987120 -24.328900 0.000322 -0.000009 1.406780 4.472110 -17.494000 -22.291500 -0.000108 -0.000004 13.142200 5.400670 -2.959140 -2.192480 -6.469440 -0.000000 -173.506000 -12.758600 3.496370 39.081100 -0.000007 -0.000012 -0.224926 0.380188 30.609700 40.985400 -0.000006 -0.000013 -0.482837 5.831180 -72.888100 11.754300 -0.000000 0.000003 -0.000166 -0.001580 -16.637400 -2.192510 6.469440 -0.000001 173.935000 17.974400 -175.636000 -39.081100 -0.002282 -0.040193 -0.243240 0.421454 30.327100 -40.985400 0.000008 0.000006 3.975800 13.273700 -73.871200 -11.754300 -0.000006 -0.000006 -0.001414 -0.021125 -17.432100
0.000000 0.000000 0.000000 0.000000 0.000000 -0.000000 -2.338320 90.356100 1.933190 89.816800 -4.742540 10.715700 15.735700 0.000005 -0.000001 83.373000 82.361000 -82.511600 8.984550 -0.406207 -0.000000 7.426300 -1.759060 1.835150 16.377300 -0.000001 -0.000001 5.000820 -4.284370 1.713130 6.456720 -0.000001 -0.000000 -7.786800 -3.876840 0.814196 12.994200 -0.242716 4.980390 -91.752700 6.502040 -74.878800 5.348090 -0.000007 -0.000001 -61.941900 37.623500 -17.895300 24.328600 0.000019 0.000005 10.134400 23.636900 -24.028100 22.291600 -0.000001 0.000005 6.927110 5.291370 0.313098 12.994500 -0.242716 -4.980390 88.242700 11.856300 -81.506900 -5.348130 -0.000001 -0.000004 -60.536100 35.749200 -10.047500 -24.328900 0.000322 -0.000009 1.389800 4.377930 -17.644100 -22.291500 -0.000108 -0.000004 13.056000 5.401670 -2.991660 -2.192480 -6.469440 -0.000000 -173.504000 -12.719800 3.523270 39.081100 -0.000007 -0.000012 -0.226142 0.382352 30.602600 40.985400 -0.000006 -0.000013 -0.495103 5.853170 -72.851700 11.754300 -0.000000 0.000003 -0.000181 -0.001701 -16.641900 -2.192510 6.469440 -0.000001 173.896000 18.035300 -175.586000 -39.081100 -0.002282 -0.040193 -0.243910 0.422476 30.334300 -40.985400 0.000008 0.000006 3.989510 13.269700 -73.867600 -11.754300 -0.000006 -0.000006 -0.001294 -0.019503 -17.366200
0.000000 0.000000 0.000000 0.000000 0.000000 -0.000000 -2.361450 90.361000 1.870480 89.832100 -4.635670 10.728900 15.735700 0.000005 -0.000001 83.296200 82.381000 -82.469400 8.984550 -0.406207 -0.000000 7.383760 -1.774930 1.766480 16.377300 -0.000001 -0.000001 5.390620 -4.574250 1.755060 6.456720 -0.000001 -0.000000 -7.320370 -4.364150 0.997909 12.994200 -0.242716 4.980390 -91.734500 6.426530 -74.861200 5.348090 -0.000007 -0.000001 -61.432900 36.826900 -18.543200 24.328600 0.000019 0.000005 10.491100 23.232000 -25.147900 22.291600 -0.000001 0.000005 7.084750 5.292000 0.295606 12.994500 -0.242716 -4.980390 88.254500 11.796100 -81.521500 -5.348130 -0.000001 -0.000004 -60.747500 35.883600 -10.054700 -24.328900 0.000322 -0.000009 1.353090 4.219270 -17.811800 -22.291500 -0.000108 -0.000004 13.016400 5.402820 -3.029440 -2.192480 -6.469440 -0.000000 -173.529000 -12.617400 3.469890 39.081100 -0.000007 -0.000012 -0.227151 0.383941 30.610200 40.985400 -0.000006 -0.000013 -0.506867 5.859810 -72.803300 11.754300 -0.000000 0.000003 -0.000172 -0.001631 -16.639300 -2.192510 6.469440 -0.000001 173.900000 18.097600 -175.615000 -39.081100 -0.002282 -0.040193 -0.243343 0.421178 30.353900 -40.985400 0.000008 0.000006 4.005740 13.232000 -73.846300 -11.754300 -0.000006 -0.000006 -0.001396 -0.020879 -17.422100
0.000000 0.000000 0.000000 0.000000 0.000000 -0.000000 -2.400570 90.363100 1.811880 89.831700 -4.487650 10.749300 15.735700 0.000005 -0.000001 83.272300 82.406000 -82.470200 8.984550 -0.406207 -0.000000 7.333010 -1.775730 1.716430 16.377300 -0.000001 -0.000001 5.774600 -4.978340 1.773190 6.456720 -0.000001 -0.000000 -6.658240 -5.006930 1.126830 12.994200 -0.242716 4.980390 -91.710600 6.337880 -74.862300 5.348090 -0.000007 -0.000001 -60.620500 35.966400 -19.547400 24.328600 0.000019 0.000005 10.979600 22.905300 -26.495100 22.291600 -0.000001 0.000005 7.023520 5.296160 0.179625 12.994500 -0.242716 -4.980390 88.271100 11.724000 -81.550500 -5.348130 -0.000001 -0.000004 -60.980500 36.002300 -10.028600 -24.328900 0.000322 -0.000009 1.308270 4.046790 -17.945600 -22.291500 -0.000108 -0.000004 13.043900 5.404830 -3.095200 -2.192480 -6.469440 -0.000000 -173.508000 -12.544300 3.407550 39.081100 -0.000007 -0.000012 -0.227126 0.383386 30.643800 40.985400 -0.000006 -0.000013 -0.499080 5.971000 -72.760700 11.754300 -0.000000 0.000003 -0.000169 -0.001604 -16.638300 -2.192510 6.469440 -0.000001 173.926000 18.177200 -175.623000 -39.081100 -0.002282 -0.040193 -0.244901 0.423552 30.370800 -40.985400 0.000008 0.000006 4.016530 13.142600 -73.830100 -11.754300 -0.000006 -0.000006 -0.001250 -0.018903 -17.341800
